<svg width="960" height="384" viewBox="0 0 960 384" fill="none" xmlns="http://www.w3.org/2000/svg">
  <rect width="960" height="384" rx="32" fill="#141414"/>
  <path d="M0 0h960v384H0z" fill="url(#g)"/>
  <g opacity=".18" stroke="#fff">
    <path d="M64 0v384M128 0v384M192 0v384M256 0v384M320 0v384M384 0v384M448 0v384M512 0v384M576 0v384M640 0v384M704 0v384M768 0v384M832 0v384M896 0v384"/>
    <path d="M0 64h960M0 128h960M0 192h960M0 256h960M0 320h960"/>
  </g>
  <text x="86" y="130" fill="#f8fafc" font-family="Arial, Helvetica, sans-serif" font-size="48" font-weight="800">Frontend</text>
  <text x="86" y="178" fill="#9ca3af" font-family="Arial, Helvetica, sans-serif" font-size="48" font-weight="800">Developer</text>
  <text x="88" y="226" fill="#d4d4d8" font-family="Arial, Helvetica, sans-serif" font-size="18">A focused portfolio preview for selected work.</text>
  <rect x="88" y="260" width="72" height="28" rx="14" fill="#27272a"/>
  <rect x="174" y="260" width="72" height="28" rx="14" fill="#27272a"/>
  <rect x="260" y="260" width="72" height="28" rx="14" fill="#27272a"/>
  <rect x="682" y="90" width="148" height="210" rx="16" fill="#e5e7eb"/>
  <rect x="696" y="106" width="120" height="182" rx="12" fill="#111827"/>
  <circle cx="756" cy="170" r="42" fill="#52525b"/>
  <rect x="710" y="224" width="92" height="42" rx="6" fill="#f8fafc"/>
  <defs>
    <radialGradient id="g" cx="0" cy="0" r="1" gradientUnits="userSpaceOnUse" gradientTransform="translate(760 210) rotate(168.69) scale(674 412)">
      <stop stop-color="#3f3f46"/>
      <stop offset="1" stop-color="#111111" stop-opacity="0"/>
    </radialGradient>
  </defs>
</svg>
